<?xml version="1.0" standalone="no"?>
<!DOCTYPE svg PUBLIC "-//W3C//DTD SVG 20010904//EN"
 "http://www.w3.org/TR/2001/REC-SVG-20010904/DTD/svg10.dtd">
<svg version="1.0" xmlns="http://www.w3.org/2000/svg"
 width="265.000000pt" height="265.000000pt" viewBox="0 0 265.000000 265.000000"
 preserveAspectRatio="xMidYMid meet">
<metadata>
Created by potrace 1.11, written by Peter Selinger 2001-2013
</metadata>
<g transform="translate(0.000000,265.000000) scale(0.100000,-0.100000)"
fill="#000000" stroke="none">
<path d="M740 2290 c-9 -6 -10 -10 -3 -10 6 0 15 5 18 10 8 12 4 12 -15 0z"/>
<path d="M1890 2280 c8 -5 26 -10 39 -10 32 0 24 6 -19 14 -25 4 -31 3 -20 -4z"/>
<path d="M678 2273 c6 -2 18 -2 25 0 6 3 1 5 -13 5 -14 0 -19 -2 -12 -5z"/>
<path d="M185 2181 c-80 -20 -137 -96 -136 -183 0 -29 27 -226 61 -438 33
-212 61 -398 61 -415 1 -16 -13 -220 -31 -452 l-32 -422 22 -46 c16 -32 37
-56 68 -76 l46 -29 1065 0 c1194 0 1102 -6 1164 72 23 28 31 51 34 90 3 29 -9
235 -26 458 l-31 405 56 360 c31 198 60 392 66 430 14 96 0 145 -59 204 l-45
46 -1126 2 c-620 1 -1141 -2 -1157 -6z m883 -495 c114 -31 187 -101 212 -207
28 -115 -12 -226 -102 -284 -26 -16 -47 -32 -47 -35 -1 -4 15 -12 34 -19 43
-15 89 -60 117 -115 32 -59 31 -181 -1 -254 -30 -66 -100 -130 -172 -157 -77
-28 -223 -27 -299 3 -99 39 -169 126 -186 230 l-7 42 70 0 70 0 7 -37 c18
-110 137 -175 262 -144 96 24 144 88 144 191 0 139 -78 200 -252 200 l-78 0 3
53 2 52 90 5 c155 9 219 65 219 190 0 118 -52 175 -170 187 -102 11 -186 -43
-209 -134 l-12 -48 -68 -3 -67 -3 7 43 c29 183 231 297 433 244z m832 -541 l0
-555 -67 0 -68 0 3 469 2 470 -132 -45 c-73 -24 -136 -44 -141 -44 -4 0 -7 27
-5 61 l3 61 190 69 c105 37 196 68 203 69 9 0 12 -117 12 -555z"/>
</g>
</svg>
